<?xml version="1.0" encoding="UTF-8"?>
<svg width="96px" height="96px" viewBox="0 0 96 96" version="1.1" xmlns="http://www.w3.org/2000/svg" xmlns:xlink="http://www.w3.org/1999/xlink">
    <!-- Generator: Sketch 58 (84663) - https://sketch.com -->
    <title>perlin-logo.99d10a56</title>
    <desc>Created with Sketch.</desc>
    <defs>
        <circle id="path-1" cx="48" cy="48" r="48"></circle>
        <circle id="path-3" cx="48" cy="48" r="48"></circle>
        <circle id="path-5" cx="48" cy="48" r="48"></circle>
        <linearGradient x1="62.5324026%" y1="2.02986636%" x2="50%" y2="86.7733965%" id="linearGradient-7">
            <stop stop-color="#FFA5A5" offset="0%"></stop>
            <stop stop-color="#FF9595" offset="25.564487%"></stop>
            <stop stop-color="#A078FF" offset="57.4286488%"></stop>
            <stop stop-color="#74FFE4" offset="100%"></stop>
        </linearGradient>
        <circle id="path-8" cx="48" cy="48" r="48"></circle>
        <circle id="path-10" cx="48" cy="48" r="48"></circle>
        <linearGradient x1="23.1905764%" y1="7.48562986%" x2="72.3721591%" y2="94.8797053%" id="linearGradient-12">
            <stop stop-color="#FFA5A5" offset="0%"></stop>
            <stop stop-color="#FF9595" offset="25.564487%"></stop>
            <stop stop-color="#A078FF" offset="57.4286488%"></stop>
            <stop stop-color="#77F8E5" offset="84.0419382%"></stop>
            <stop stop-color="#74FFE4" offset="100%"></stop>
        </linearGradient>
    </defs>
    <g id="Page-1" stroke="none" stroke-width="1" fill="none" fill-rule="evenodd">
        <g id="perlin-logo.99d10a56">
            <g id="Oval-2" fill="#D8D8D8" fill-rule="nonzero">
                <circle id="path-1" cx="48" cy="48" r="48"></circle>
            </g>
            <g id="Group-Copy-Clipped">
                <mask id="mask-2" fill="white">
                    <use xlink:href="#path-1"></use>
                </mask>
                <g id="path-1"></g>
                <g id="Group-Copy" mask="url(#mask-2)">
                    <g id="Stroke-1-Clipped">
                        <mask id="mask-4" fill="white">
                            <use xlink:href="#path-3"></use>
                        </mask>
                        <g id="path-3"></g>
                        <path d="M43.8851192,95.7352663 C37.827544,95.2146031 33.1752746,90.145629 33.1752746,84.0655461 C33.1752746,77.5968622 38.4193368,72.3529244 44.8880207,72.3529244 C64.7428601,72.3529244 80.8384041,56.2573803 80.8384041,36.4026653 C80.8384041,16.5478259 64.7428601,0.452406218 44.8880207,0.452406218 C41.7463834,0.452406218 38.6181762,0.86426114 35.5834819,1.67740104 C40.960601,0.23653057 46.5477513,-0.256650777 52.094114,0.220116062 C78.4699896,2.48693472 98.0140725,25.7063751 95.7472539,52.0821264 C93.4804352,78.4580021 70.2609948,98.002085 43.8851192,95.7352663 Z" id="Stroke-1" fill="#060B24" fill-rule="nonzero" mask="url(#mask-4)"></path>
                    </g>
                    <g id="Stroke-3-Clipped">
                        <mask id="mask-6" fill="white">
                            <use xlink:href="#path-5"></use>
                        </mask>
                        <g id="path-3"></g>
                        <path d="M45.9294434,93.2731934 C39.8718682,92.7422801 33.3300781,89.2342529 33.3300781,83.7553711 C33.3300781,78.2764893 37.4235902,75.0590268 43.8872006,74.6971436 C67.8923275,73.3531494 84.3728141,57.6503931 84.3728141,37.4048089 C84.3728141,17.1590978 67.0756943,0.707253886 47.2208549,0.707253886 C44.0792176,0.707253886 41.9756891,0.619930232 38.9409948,1.44907798 C13.3699275,8.43565266 -1.80491192,35.2368171 5.0467772,61.3112884 C10.2692021,81.1854743 25.4749421,92.5899842 45.9294434,93.2731934 Z" id="Stroke-3" fill="url(#linearGradient-7)" fill-rule="nonzero" mask="url(#mask-6)"></path>
                    </g>
                    <g id="Stroke-3-Copy-Clipped">
                        <mask id="mask-9" fill="white">
                            <use xlink:href="#path-8"></use>
                        </mask>
                        <g id="path-3"></g>
                        <path d="M39.1118708,93.9316406 C29.7490234,91.2333984 28.9266823,84.2967162 30.3876953,79.5600586 C32.3344727,73.2485352 37.9262695,71.4580078 44.9121094,70.6040039 C67.9791758,67.7841046 80.4980469,55.0025635 80.4980469,36.1914063 C80.4980469,17.380249 65.3693848,1.55126953 43.8200684,3.09008789 C40.6840919,3.3140253 30.7912272,3.60456828 27.9887695,5.21813965 C10.2751465,15.4171143 -5.16242487,34.8128207 1.68926425,60.3838881 C6.91168912,79.8743751 19.0802976,92.9841819 39.1118708,93.9316406 Z" id="Stroke-3-Copy" fill="#060B24" fill-rule="nonzero" mask="url(#mask-9)"></path>
                    </g>
                    <g id="Oval-Copy-2-Clipped">
                        <mask id="mask-11" fill="white">
                            <use xlink:href="#path-10"></use>
                        </mask>
                        <g id="path-3"></g>
                        <path d="M48,99 C19.8334778,99 -3,76.1665222 -3,48 C-3,19.8334778 19.8334778,-3 48,-3 C76.1665222,-3 99,19.8334778 99,48 C99,76.1665222 76.1665222,99 48,99 Z M48,93 C72.8528137,93 93,72.8528137 93,48 C93,23.1471863 72.8528137,3 48,3 C23.1471863,3 3,23.1471863 3,48 C3,72.8528137 23.1471863,93 48,93 Z" id="Oval-Copy-2" fill="url(#linearGradient-12)" fill-rule="nonzero" mask="url(#mask-11)"></path>
                    </g>
                </g>
            </g>
        </g>
    </g>
</svg>